<svg width="30" height="30" viewBox="0 0 30 30" fill="none" xmlns="http://www.w3.org/2000/svg">
<path d="M21.2 7.7123C23.7 9.4498 25.425 12.2123 25.775 15.3998M4.3625 15.4623C4.6875 12.2873 6.3875 9.5248 8.8625 7.7748M10.2375 26.1748C11.6875 26.9123 13.3375 27.3248 15.075 27.3248C16.75 27.3248 18.325 26.9498 19.7375 26.2623M18.55 6.1498C18.55 8.06899 16.9942 9.6248 15.075 9.6248C13.1558 9.6248 11.6 8.06899 11.6 6.1498C11.6 4.23062 13.1558 2.6748 15.075 2.6748C16.9942 2.6748 18.55 4.23062 18.55 6.1498ZM9.5125 21.4248C9.5125 23.344 7.95669 24.8998 6.0375 24.8998C4.11831 24.8998 2.5625 23.344 2.5625 21.4248C2.5625 19.5056 4.11831 17.9498 6.0375 17.9498C7.95669 17.9498 9.5125 19.5056 9.5125 21.4248ZM27.4375 21.4248C27.4375 23.344 25.8817 24.8998 23.9625 24.8998C22.0433 24.8998 20.4875 23.344 20.4875 21.4248C20.4875 19.5056 22.0433 17.9498 23.9625 17.9498C25.8817 17.9498 27.4375 19.5056 27.4375 21.4248Z" stroke="#805EE5" stroke-width="1.5" stroke-linecap="round" stroke-linejoin="round"/>
</svg>
