<svg width="35" height="35" viewBox="0 0 35 35" fill="none" xmlns="http://www.w3.org/2000/svg">
<path d="M10.8797 28.2044H8.07961C3.79211 27.8981 1.86719 24.6023 1.86719 21.6711C1.86719 18.7398 3.79213 15.4294 8.00671 15.1377C8.60463 15.0794 9.12961 15.5461 9.17336 16.1586C9.21711 16.7565 8.7651 17.2815 8.1526 17.3252C5.32343 17.5294 4.05469 19.6586 4.05469 21.6856C4.05469 23.7127 5.32343 25.8419 8.1526 26.0461H10.8797C11.4776 26.0461 11.9734 26.5419 11.9734 27.1398C11.9734 27.7377 11.4776 28.2044 10.8797 28.2044Z" fill="#1B1A4F"/>
<path d="M24.3101 28.2039C24.2809 28.2039 24.2663 28.2039 24.2372 28.2039C23.6392 28.2039 23.0851 27.708 23.0851 27.1101C23.0851 26.483 23.5518 26.0164 24.1643 26.0164C25.958 26.0164 27.5622 25.3893 28.8164 24.2664C31.0914 22.2831 31.2372 19.4247 30.6247 17.4122C30.0122 15.4143 28.3059 13.1247 25.3309 12.7601C24.8497 12.7018 24.4705 12.3372 24.383 11.856C23.7996 8.35598 21.9184 5.93514 19.0601 5.06014C16.1143 4.14139 12.6725 5.04555 10.5288 7.29139C8.44338 9.4643 7.96214 12.5122 9.17256 15.8664C9.37672 16.4351 9.08513 17.0622 8.51638 17.2664C7.94763 17.4705 7.32051 17.1789 7.11635 16.6101C5.64343 12.4976 6.31428 8.56014 8.95386 5.7893C11.6518 2.96014 15.983 1.83721 19.7018 2.97471C23.1143 4.02471 25.5205 6.83929 26.3955 10.7476C29.3705 11.4185 31.7622 13.6789 32.7101 16.7997C33.7455 20.1976 32.8122 23.6976 30.2601 25.9143C28.6413 27.3726 26.5267 28.2039 24.3101 28.2039Z" fill="#1B1A4F"/>
<path d="M17.5002 32.4915C14.5689 32.4915 11.8273 30.9311 10.3252 28.4082C10.1648 28.1603 10.0044 27.8686 9.87311 27.5478C9.37727 26.5124 9.11475 25.3311 9.11475 24.1061C9.11475 19.4832 12.8772 15.7207 17.5002 15.7207C22.1231 15.7207 25.8856 19.4832 25.8856 24.1061C25.8856 25.3457 25.6231 26.5124 25.0981 27.5915C24.9814 27.8686 24.821 28.1603 24.646 28.4374C23.1731 30.9311 20.4314 32.4915 17.5002 32.4915ZM17.5002 17.9082C14.0877 17.9082 11.3022 20.6936 11.3022 24.1061C11.3022 25.0103 11.4918 25.8561 11.8564 26.629C11.9731 26.8769 12.0751 27.0811 12.1918 27.2707C13.3001 29.152 15.3272 30.304 17.4856 30.304C19.6439 30.304 21.671 29.152 22.7647 27.2999C22.896 27.0811 23.0127 26.8769 23.1002 26.6728C23.494 25.8707 23.6835 25.0249 23.6835 24.1207C23.6981 20.6936 20.9127 17.9082 17.5002 17.9082Z" fill="#1B1A4F"/>
<path d="M16.6686 26.6436C16.3916 26.6436 16.1145 26.5415 15.8958 26.3227L14.452 24.879C14.029 24.4561 14.029 23.7561 14.452 23.3331C14.8749 22.9102 15.5749 22.9102 15.9978 23.3331L16.6978 24.0331L19.0311 21.8748C19.4832 21.4665 20.1686 21.4956 20.577 21.9331C20.9853 22.3706 20.9562 23.0707 20.5187 23.479L17.4124 26.3519C17.1937 26.5415 16.9311 26.6436 16.6686 26.6436Z" fill="#1B1A4F"/>
</svg>
