<svg width="29" height="29" viewBox="0 0 29 29" fill="none" xmlns="http://www.w3.org/2000/svg">
<path d="M17.1824 11.8178L14.4999 13.1591M14.4999 13.1591L11.8174 11.8178M14.4999 13.1591V16.5182M25.242 7.782L22.5595 9.12325M25.242 7.782L22.5595 6.44074M25.242 7.782V11.1412M3.75781 7.782L6.44031 6.44074M3.75781 7.782L6.44031 9.12325M3.75781 7.782V11.1412M14.4999 26.5837L11.8174 25.2424M14.4999 26.5837L17.1824 25.2424M14.4999 26.5837V23.2245M22.5595 22.5599L25.242 21.2187V17.8595M17.1824 3.75824L14.4999 2.41699L11.8174 3.75824H17.1824ZM6.44031 22.5599L3.75781 21.2187V17.8595L6.44031 22.5599Z" stroke="#805EE5" stroke-width="1.5" stroke-linecap="round" stroke-linejoin="round"/>
</svg>
